<svg xmlns="http://www.w3.org/2000/svg" xmlns:xlink="http://www.w3.org/1999/xlink" version="1.1" id="Layer_1" x="0px" y="0px" style="enable-background:new 0 0 1382 768;" xml:space="preserve" width="144" height="80" viewBox="14 12.81 1350 455.81">
<style type="text/css">
	.st0{fill:#0;}
</style>
<rect x="0" y="0" width="1382" height="768" fill="#fff"/>
<g>
	<g>
		<g>
			<path class="st0" d="M402.26,321.44c6.2-6.18,13.5-8.71,27.53-8.71h56.48c15.72,0,25,2.79,30.63,8.71     c7.04,6.99,9.28,15.16,9.28,41.28v104.52h-43v-17.68c-18.55,15.16-25.28,17.96-39.05,17.96h-21.09     c-13.76,0-21.07-1.68-27.24-7.83c-5.35-5.37-8.97-14.36-8.97-34.57c0-19.11,2.79-30.92,9.56-37.67c7-7.02,15.99-10.4,43.79-10.4     c14.91,0,30.36,1.71,43.01,4.5v-13.77c0-15.17-0.85-18.26-2.82-20.51c-1.98-1.71-4.78-2.28-11.24-2.28h-21.62     c-5.91,0-9.01,0.57-10.7,2.28c-2.24,2.25-2.53,5.34-3.09,14.61h-40.71C393.27,336.06,395.8,327.58,402.26,321.44z M483.18,428.75     v-25.84h-28.36c-16.32,0-20.25,1.12-23.06,3.91c-2.79,2.84-3.36,6.2-3.36,13.23c0,7.88,0.57,12.08,2.81,14.34     c2.25,2.22,5.33,2.5,10.95,2.5h12.07C463.24,436.88,469.13,436.06,483.18,428.75z"/>
			<path class="st0" d="M642.16,467.24V447.3c-19.39,16.87-26.14,20.23-38.79,20.23h-16.28c-16.32,0-25.01-2.8-31.74-9.54     c-9.26-9.26-12.93-22.78-12.93-68.01c0-45.52,4.47-58.42,14.03-67.99c6.76-6.72,15.73-9.53,31.18-9.53h16.86     c12.92,0,19.95,2.81,37.67,17.69V259.9h43v207.34H642.16z M642.16,426.5v-73.6c-9.01-4.21-15.47-6.17-22.49-6.17h-15.43     c-7.88,0-11.57,1.11-14.08,3.64c-3.93,3.64-5.03,10.13-5.03,39.6c0,29.5,1.11,35.7,5.03,39.65c2.51,2.5,6.2,3.37,14.08,3.37     h14.02C625.57,432.99,632.58,431,642.16,426.5z"/>
			<path class="st0" d="M716.83,321.44c6.17-6.18,13.49-8.71,27.52-8.71h56.49c15.73,0,24.99,2.79,30.64,8.71     c7.01,6.99,9.26,15.16,9.26,41.28v104.52h-43v-17.68c-18.54,15.16-25.29,17.96-39.05,17.96h-21.05     c-13.78,0-21.11-1.68-27.26-7.83c-5.35-5.37-9.01-14.36-9.01-34.57c0-19.11,2.81-30.92,9.56-37.67     c7.03-7.02,16.02-10.4,43.83-10.4c14.91,0,30.34,1.71,42.99,4.5v-13.77c0-15.17-0.84-18.26-2.81-20.51     c-1.94-1.71-4.79-2.28-11.24-2.28h-21.63c-5.91,0-8.99,0.57-10.67,2.28c-2.27,2.25-2.53,5.34-3.12,14.61h-40.72     C707.84,336.06,710.38,327.58,716.83,321.44z M797.74,428.75v-25.84h-28.35c-16.31,0-20.26,1.12-23.05,3.91     c-2.81,2.84-3.38,6.2-3.38,13.23c0,7.88,0.57,12.08,2.82,14.34c2.24,2.22,5.32,2.5,10.95,2.5h12.06     C777.8,436.88,783.7,436.06,797.74,428.75z"/>
			<path class="st0" d="M856.96,467.24V305.41c0-19.39,2.55-29.52,9.01-35.96c6.47-6.46,13.77-9.55,30.34-9.55h35.41v32.57h-20.82     c-5.6,0-7.28,0.57-8.96,1.96c-1.42,1.71-1.96,4.75-1.96,12.38v6.19h31.75v33.44h-31.48v120.79H856.96z"/>
			<path class="st0" d="M947.94,467.24V312.72h42.96v23.59c16.04-16.59,24.17-23.87,36.53-23.87H1044v42.42h-19.94     c-11.79,0-20.78,1.11-33.16,6.17v106.2H947.94z"/>
			<path class="st0" d="M1199.3,312.72v154.52h-43.27v-20.48c-19.66,17.69-26.13,20.77-40.18,20.77h-18.82     c-13.49,0-21.92-2.8-27.79-8.71c-6.2-6.46-9-14.59-9-37.1v-109h43.27v104.24c0,6.44,0.83,10.11,3.36,12.66     c2.53,2.5,5.06,3.37,12.64,3.37h12.39c7.28,0,13.77-1.71,24.13-6.2V312.72H1199.3z"/>
			<path class="st0" d="M1257.74,291.34h-42.42V259.9h42.42V291.34z M1257.74,467.24h-42.42V312.72h42.42V467.24z"/>
			<path class="st0" d="M1349,433.26h-18.53c-7.06,0-9.86-0.59-11.24-1.7c-1.42-1.69-1.98-3.93-1.98-10.68v-74.44H1349v-33.72     h-31.75v-21.38h-43.27v21.38v33.72v85.97c0,15.73,1.96,22.76,7.03,27.81c5.34,5.35,13.19,8.4,27.82,8.4     c11.51,0,23.04-1.68,29.78-3.36l10.39-2.7V433.26z"/>
		</g>
	</g>
	<path class="st0" d="M469.56,213.53c-1.48-9.33-6.54-12.01-18.77-15.91c-9.28-2.98-71.47-22.79-71.47-22.79   s-43.35-16.38-75.48,6.78c-4.32,3.13-8.81,6.68-13.31,10.47c3.78-4.5,7.34-8.99,10.45-13.31c23.09-32.18,6.65-75.5,6.65-75.5   s-19.91-62.13-22.92-71.44c-3.93-12.2-6.6-17.27-15.94-18.72c-9.36-1.48-13.45,2.5-20.94,12.92c-5.71,7.91-43.77,60.94-43.77,60.94   s-28.94,36.16-16.87,73.88c1.64,5.06,3.63,10.43,5.86,15.89c-3.13-5-6.3-9.76-9.46-14.05c-23.47-31.89-69.73-29.66-69.73-29.66   s-65.26-0.26-75.02-0.27c-12.83-0.05-18.46,0.95-22.76,9.37c-4.29,8.42-1.75,13.57,5.83,23.9c5.76,7.88,44.44,60.45,44.44,60.45   s25.44,38.72,65.03,38.88c5.32,0.03,11.02-0.22,16.88-0.64c-5.69,1.42-11.19,2.98-16.24,4.64c-37.59,12.46-49.74,57.17-49.74,57.17   s-20.42,61.99-23.46,71.27c-3.98,12.18-4.79,17.84,1.9,24.51c6.69,6.7,12.36,5.87,24.53,1.85c9.27-3.03,71.24-23.58,71.24-23.58   s44.66-12.24,57.04-49.85c1.68-5.06,3.2-10.55,4.63-16.22c-0.42,5.84-0.64,11.53-0.6,16.85c0.21,39.6,38.98,64.98,38.98,64.98   s52.64,38.55,60.52,44.31c10.37,7.55,15.5,10.08,23.93,5.78c8.41-4.3,9.39-9.93,9.33-22.77c-0.04-9.75-0.43-75.01-0.43-75.01   s2.18-46.27-29.76-69.68c-4.3-3.15-9.05-6.31-14.03-9.41c5.44,2.19,10.79,4.18,15.87,5.77c37.72,12.03,73.85-16.98,73.85-16.98   s52.94-38.15,60.85-43.87C467.06,226.99,471.04,222.86,469.56,213.53z M244.76,165.48c7.13,1.11,10.66,16.26,7.87,33.82   c-2.75,17.56-10.75,30.88-17.88,29.76c-7.11-1.13-10.65-16.26-7.89-33.82C229.63,177.69,237.64,164.36,244.76,165.48z    M153.6,212.02c3.25-6.43,18.75-5.09,34.57,2.96c15.85,8.05,26.05,19.8,22.78,26.22c-3.27,6.41-18.75,5.1-34.59-2.95   C160.52,230.2,150.33,218.45,153.6,212.02z M201.66,299.59c-12.56,12.58-26.87,18.63-31.96,13.54   c-5.11-5.09,0.94-19.41,13.49-31.99c12.55-12.59,26.86-18.65,31.97-13.56C220.27,272.68,214.23,287.01,201.66,299.59z    M270.82,329.06c-6.43,3.27-18.19-6.89-26.26-22.71c-8.08-15.84-9.43-31.34-3-34.61c6.41-3.27,18.15,6.9,26.24,22.73   C275.88,310.29,277.25,325.78,270.82,329.06z M287.49,255.75c-17.55,2.81-32.7-0.71-33.83-7.82c-1.13-7.12,12.18-15.16,29.74-17.95   c17.54-2.79,32.69,0.71,33.82,7.82C318.35,244.91,305.05,252.96,287.49,255.75z"/>
</g>
</svg>
