<?xml version="1.0" encoding="UTF-8"?>
<svg width="280" height="140" version="1.1" viewBox="0 0 74.083 37.042" xmlns="http://www.w3.org/2000/svg">
  <g transform="translate(-60.931 -79.245)">
    <g transform="matrix(1.0442 0 0 1.1531 -27.105 33.588)" fill="#fff">
      <path d="m86.972 39.594c-1.4683 3.2e-5 -2.6588 1.181-2.66 2.6384v26.844c3.3e-5 1.4583 1.1909 2.6404 2.66 2.6404h65.63c1.469-3.2e-5 2.66-1.1822 2.66-2.6404v-26.844c-1e-3 -1.4575-1.1917-2.6384-2.66-2.6384z" color="#000000" fill="#fff" style="-inkscape-stroke:none"/>
    </g>
    <g transform="matrix(.35278 0 0 -.35278 -160.36 421.93)" fill="#231f20">
      <path transform="translate(672.09 955.48)" d="m0 0h-21.484v-12.601h-5.349v-6.436h5.349v-25.383c0-11.331 7.252-13.87 17.223-13.87 4.352 0 8.613 0.272 12.873 0.907v6.073c-0.816-0.09-2.266-0.362-3.535-0.362-3.807 0-5.077 0.816-5.077 4.896v27.739h8.612v6.436h-8.612z"/>
      <path transform="translate(693.61 925.33)" d="m0 0h-0.049c-1.518 0-2.165-0.896-2.165-2.24v-0.05h4.504v0.05c0 1.344-0.771 2.24-2.29 2.24"/>
      <path transform="translate(700.92 925.5)" d="m0 0h-0.124c-1.443 0-2.265-0.995-2.265-2.389v-0.074h4.654v0.074c0 1.394-0.822 2.389-2.265 2.389"/>
      <path transform="translate(750.09 943.78)" d="m0 0c-6.165 0-11.876-2.267-14.505-5.893v4.986h-20.578v-45.326h21.484v36.533c1.27 0.272 2.449 0.453 3.717 0.453 4.715 0 5.44-2.538 5.44-6.436v-30.55h21.484v30.278c0 11.694-7.523 15.955-17.042 15.955"/>
      <path transform="translate(811.83 942.88)" d="m0 0-10.516-23.57-11.784 23.57h-23.388l24.204-48.046-6.799-15.411h8.249l28.193 63.457z"/>
      <path transform="translate(706 920)" d="m0 0h-17.421v2.637c0 2.938 1.194 5.675 4.43 5.675h0.124c2.24 0 3.335-1.269 3.932-2.514 0.647 1.469 1.667 2.738 3.883 2.738h0.224c3.086 0 4.828-2.39 4.828-5.774zm-0.598-9.412h-3.16c0.622 1.07 0.971 1.917 0.971 2.737 0 0.871-0.424 1.618-1.493 1.618h-0.05c-0.797 0-1.394-0.249-3.037-1.692-2.339-2.065-3.459-2.912-5.574-2.912h-0.05c-2.787 0-4.555 1.816-4.555 4.231 0 1.219 0.175 1.941 0.548 2.687h3.161c-0.548-0.945-0.797-1.518-0.797-2.314 0-0.845 0.548-1.568 1.493-1.568h0.05c0.821 0 1.12 0.25 2.788 1.692 2.762 2.39 3.832 2.912 5.824 2.912h0.048c2.739 0 4.555-1.917 4.555-4.305 0-1.195-0.298-2.215-0.722-3.086m-4.479-10.93h-12.344v3.011h12.643c1.567 0 2.189 0.548 2.189 1.319 0 0.772-0.622 1.32-2.189 1.32h-12.643v3.01h12.344c3.658 0 5.301-1.841 5.301-4.33 0-2.488-1.643-4.33-5.301-4.33m-9.641 53.817h12.114v-10.601h-12.114zm14.114 2h-16.114v-12.601h-2.685v-45.326h21.484v45.326h-2.685z"/>
      <path d="m692.79 947.02h2.827v2.319h-2.827z"/>
      <path d="m699.06 947.02h2.826v2.319h-2.826z"/>
    </g>
  </g>
</svg>
